<svg id="Joy-Con_L" data-name="Joy-Con L" xmlns="http://www.w3.org/2000/svg" viewBox="0 0 169.93 477.55"><defs><style>.cls-1{fill:#191f28;}.cls-2{fill:#d8dada;}</style></defs><path class="cls-1" d="M314.16,37.59s3,5.34,7.32,3a5,5,0,0,1,6.74,1.56v72.57l-2.63,5.43s-1.48,2.46,2,3.86c0,0,1.07-.74,1.07,8.71v22.53s.16,4.35-1.32,4.76-1.15,3-1.15,3,2.15,3.62,2.47,14,0,120.27,0,120.27a21.24,21.24,0,0,1-3,10.63s-1.86,3.23,1,4.49c0,0,1.42,0,1.48,4.06s0,30.35,0,30.35-.11,2.47-2.36,2.58,2.8,13.86,2.8,13.86.26.39.26,4.06v69s0,3.95-2.62,4.33-5.42,0-5.86-5.31-.33-15.78-.33-15.78h-9.64V42.76Z" transform="translate(-158.85 -11.02)"/><path class="cls-1" d="M171.31,78.71S166.16,75.2,169.67,66c1.83-4.81,8.45-14.68,16.31-22.82A103.89,103.89,0,0,1,205.5,27.53s26.2-20.6,75.4-15.78c0,0,9.1,1.43,7.89,5.92S171.31,78.71,171.31,78.71Z" transform="translate(-158.85 -11.02)"/><path class="cls-2" d="M308.74,488.57H255.81s-96.6-3-96.6-98.52c0-64.48-.82-170.21,0-232.11.4-29.78,2.79-49.42,2.79-49.42s5.26-91.18,104.33-92.93h41.31s8.22-.55,8.33,8l-2,458.08s.5,6.9-3.5,6.9Z" transform="translate(-158.85 -11.02)"/><circle class="cls-1" cx="82.08" cy="117.16" r="38.71"/><circle class="cls-1" cx="82.49" cy="215.85" r="18.25"/><circle class="cls-1" cx="120.49" cy="251.85" r="18.25"/><circle class="cls-1" cx="45.49" cy="251.85" r="18.25"/><circle class="cls-1" cx="82.49" cy="287.85" r="18.25"/><rect class="cls-1" x="93.36" y="326.5" width="30.25" height="30.25"/><rect class="cls-1" x="117.67" y="41.39" width="27.07" height="9.75"/></svg>