<svg id="Joy-Con_R" data-name="Joy-Con R" xmlns="http://www.w3.org/2000/svg" viewBox="0 0 168.63 478.04"><defs><style>.cls-1{fill:#191f28;}.cls-2{fill:#d8dada;}</style></defs><path class="cls-1" d="M172.15,37.59s-3,5.34-7.31,3a5,5,0,0,0-6.74,1.56v72.57l2.63,5.43s1.48,2.46-2,3.86c0,0-1.07-.74-1.07,8.71v22.53s-.17,4.35,1.31,4.76,1.15,3,1.15,3-2.14,3.62-2.47,14,0,120.27,0,120.27a21.24,21.24,0,0,0,3,10.63s1.86,3.23-1,4.49c0,0-1.42,0-1.47,4.06s0,30.35,0,30.35.1,2.47,2.35,2.58-2.79,13.86-2.79,13.86-.26.39-.26,4.06v69s0,3.95,2.61,4.33,5.43,0,5.87-5.31.32-15.78.32-15.78H176V42.76Z" transform="translate(-157.54 -11.02)"/><path class="cls-1" d="M315,78.71s5.15-3.51,1.65-12.71c-1.84-4.81-8.46-14.68-16.32-22.82a103.57,103.57,0,0,0-19.52-15.65s-26.19-20.6-75.4-15.78c0,0-9.09,1.43-7.89,5.92S315,78.71,315,78.71Z" transform="translate(-157.54 -11.02)"/><path class="cls-2" d="M174.74,489.06h52.93s98.27-3.28,98.27-98.79c0-69.13.77-185.53-.52-244.56-.49-22.53-3.94-36.7-3.94-36.7s-5.26-91.18-104.33-92.93H175.84s-8.22-.55-8.33,8l2,458.08s-.5,6.9,3.5,6.9Z" transform="translate(-157.54 -11.02)"/><circle class="cls-1" cx="50.8" cy="116.94" r="18.25"/><circle class="cls-1" cx="87.8" cy="152.94" r="18.25"/><circle class="cls-1" cx="125.8" cy="116.94" r="18.25"/><circle class="cls-1" cx="87.8" cy="80.94" r="18.25"/><circle class="cls-1" cx="90.39" cy="250.55" r="38.71"/><circle class="cls-1" cx="62.42" cy="343.36" r="18.9"/><rect class="cls-1" x="36.02" y="32.4" width="8.11" height="25.53"/><rect class="cls-1" x="193.56" y="43.42" width="8.11" height="25.53" transform="translate(-16.11 242.78) rotate(-90)"/></svg>