<svg id="Transparent" xmlns="http://www.w3.org/2000/svg" viewBox="0 0 460.11 308.82"><defs><style>.cls-1{fill:#dadada;}</style></defs><path class="cls-1" d="M42.27,213.45l-5,25.92-8.44,51.18L22.49,337.5s-2.52,22,3.29,40.39,22.68,26,22.68,26,4.61,4.71,21.48,3.29,28-21.48,28-21.48l5.59-9.54L110.05,363s11.07-22.79,19.29-37.15a23.07,23.07,0,0,1,5.67-6.64C114.18,298,62.08,221.09,45.64,196.56Z" transform="translate(-21.95 -98.6)"/><path class="cls-1" d="M481.51,337.5l-6.36-46.95-8.44-51.18-5-25.92-3.37-16.89C441.92,221.09,389.82,298,369,319.19a23.07,23.07,0,0,1,5.67,6.64C382.88,340.19,394,363,394,363l6.57,13.15,5.59,9.54s11.07,20.05,27.95,21.48,21.48-3.29,21.48-3.29,16.87-7.56,22.68-26S481.51,337.5,481.51,337.5Z" transform="translate(-21.95 -98.6)"/><path class="cls-1" d="M451,163.67s-4.6-17.47-5.67-19.11-2.59-8.59-12.29-16.32-28.93-16.31-28.93-16.31-12.7-7.69-53.38-10.81S252,98.66,252,98.66s-58.08-.66-98.77,2.46-53.38,10.81-53.38,10.81-19.24,8.59-28.93,16.31S59.7,142.92,58.63,144.56,53,163.67,53,163.67l-5.87,26.05c12.25,18.33,71.5,106.37,92.24,126.72a32,32,0,0,1,16-3H348.69a32,32,0,0,1,16,3c20.74-20.35,80-108.39,92.24-126.72ZM193.83,140.76A10.2,10.2,0,1,1,183.64,151,10.2,10.2,0,0,1,193.83,140.76Zm-69.7,80a35,35,0,1,1,35-35A35,35,0,0,1,124.13,220.79Zm90.42,41.1H191.37v23.18H167.86V261.89H144.68V238.38h23.18V215.2h23.51v23.18h23.18Zm12.76-66.58H208.68V176.68h18.63Zm80.39-54.55A10.2,10.2,0,1,1,297.5,151,10.2,10.2,0,0,1,307.7,140.76ZM272.5,186a10.2,10.2,0,1,1,10.2,10.19A10.2,10.2,0,0,1,272.5,186Zm38.78,97.65a35,35,0,1,1,35-35A35,35,0,0,1,311.28,283.61Zm24.48-81a16.93,16.93,0,1,1,16.94-16.93A16.93,16.93,0,0,1,335.76,202.6Zm36,31a16.93,16.93,0,1,1,16.94-16.93A16.93,16.93,0,0,1,371.76,233.6Zm0-62a16.93,16.93,0,1,1,16.94-16.93A16.93,16.93,0,0,1,371.76,171.6Zm36,31a16.93,16.93,0,1,1,16.94-16.93A16.93,16.93,0,0,1,407.76,202.6Z" transform="translate(-21.95 -98.6)"/></svg>