<svg id="Layer_1" data-name="Layer 1" xmlns="http://www.w3.org/2000/svg" viewBox="0 0 460.11 316.67"><defs><style>.cls-1{fill:#dadada;}.cls-2{fill:#191f28;}</style></defs><path class="cls-1" d="M45.64,196.56l-3.37,16.89-5,25.92-8.44,51.18L22.49,337.5s-2.52,22,3.29,40.39,22.68,26,22.68,26,4.61,4.71,21.48,3.29,28-21.48,28-21.48l5.59-9.54L110.05,363s11.07-22.79,19.29-37.15a23.07,23.07,0,0,1,5.67-6.64C114.18,298,62.08,221.09,45.64,196.56Z" transform="translate(-21.95 -90.75)"/><path class="cls-1" d="M153.23,101.12c-40.68,3.12-53.38,10.81-53.38,10.81s-19.24,8.59-28.93,16.31S59.7,142.92,58.63,144.56,53,163.67,53,163.67l-5.87,26.05c12.25,18.33,71.5,106.37,92.24,126.72a32,32,0,0,1,16-3H252V98.66S193.92,98,153.23,101.12Z" transform="translate(-21.95 -90.75)"/><path class="cls-1" d="M458.36,196.56l3.37,16.89,5,25.92,8.44,51.18,6.36,46.95s2.52,22-3.29,40.39-22.68,26-22.68,26-4.61,4.71-21.48,3.29-27.95-21.48-27.95-21.48l-5.59-9.54L394,363s-11.07-22.79-19.29-37.15a23.07,23.07,0,0,0-5.67-6.64C389.82,298,441.92,221.09,458.36,196.56Z" transform="translate(-21.95 -90.75)"/><path class="cls-1" d="M350.77,101.12c40.68,3.12,53.38,10.81,53.38,10.81s19.24,8.59,28.93,16.31,11.22,14.68,12.29,16.32S451,163.67,451,163.67l5.87,26.05c-12.25,18.33-71.5,106.37-92.24,126.72a32,32,0,0,0-16-3H252V98.66S310.08,98,350.77,101.12Z" transform="translate(-21.95 -90.75)"/><circle class="cls-2" cx="102.19" cy="95.03" r="35.01"/><circle class="cls-2" cx="289.34" cy="157.85" r="35.01"/><circle class="cls-2" cx="171.89" cy="60.21" r="10.19"/><circle class="cls-2" cx="285.75" cy="60.21" r="10.19"/><circle class="cls-2" cx="260.75" cy="95.21" r="10.19"/><rect class="cls-2" x="186.74" y="85.93" width="18.63" height="18.63"/><rect class="cls-2" x="145.91" y="124.45" width="23.51" height="69.86"/><rect class="cls-2" x="167.86" y="215.2" width="23.51" height="69.86" transform="translate(-92.47 339) rotate(-90)"/><circle class="cls-2" cx="313.82" cy="94.92" r="16.93"/><circle class="cls-2" cx="385.82" cy="94.92" r="16.93"/><circle class="cls-2" cx="349.82" cy="125.92" r="16.93"/><circle class="cls-2" cx="349.82" cy="63.92" r="16.93"/><path class="cls-2" d="M71.94,127.34s11.7-25.07,40.63-31,41.21-5.59,41.21-5.59a33,33,0,0,1,11.94,2c6.25,2.3,16.77,6.79,16.77,6.79l-30.79,1.65s-31.13,2.32-48.61,9.64A274,274,0,0,0,71.94,127.34Z" transform="translate(-21.95 -90.75)"/><path class="cls-2" d="M431.91,127.34s-11.69-25.07-40.63-31-41.2-5.59-41.2-5.59a33.1,33.1,0,0,0-11.95,2c-6.24,2.3-16.76,6.79-16.76,6.79l30.79,1.65s31.12,2.32,48.6,9.64A272.23,272.23,0,0,1,431.91,127.34Z" transform="translate(-21.95 -90.75)"/></svg>